<?xml version="1.0" encoding="UTF-8"?><svg id="Layer_5" xmlns="http://www.w3.org/2000/svg" viewBox="0 0 1001.47 745.36"><defs><style>.cls-1{fill:#fff;}.cls-2{opacity:.5;}.cls-3{fill:#1c8796;}.cls-4{fill:#ce700b;}.cls-5{fill:#684025;}.cls-6{fill:#89582e;}.cls-7{fill:#f18805;}.cls-8{fill:#a08327;}.cls-9{fill:#b7a525;}.cls-10{fill:#24a1aa;}.cls-11{fill:#ccb52e;}.cls-12{fill:#cc5716;}</style></defs><g id="Boks"><g><polygon class="cls-7" points="998.79 315.1 998.79 446.56 480.99 745.36 480.99 592.89 998.79 315.1"/><polygon class="cls-4" points="2.77 184.69 480.99 593.75 480.99 745.36 2.77 305.59 2.77 184.69"/></g><g><path class="cls-10" d="M480.99,593.65s183.39,25.82,296.83-36.28c113.43-62.1,223.66-243.08,223.66-243.08L480.99,593.65Z"/><path class="cls-3" d="M480.99,0L0,182.25l480.99,411.4L1001.46,314.31,480.99,0ZM115.17,198.71L477.69,56.07l398.41,250.39-385.21,198.15L115.17,198.71Z"/></g><g><polygon class="cls-9" points="876.1 306.46 839.46 325.29 818.88 335.91 810.5 340.2 810.47 340.2 809.44 340.72 777.55 357.15 777.52 357.15 736.66 378.19 736.62 378.19 728.25 382.51 727.26 383.04 727.22 383.04 695.3 399.46 641.21 427.26 632.37 431.82 631.28 432.38 597.61 449.69 551.67 473.34 542.89 477.86 541.87 478.38 508.59 495.5 490.88 504.6 482.01 497.38 456.22 476.37 455.36 475.68 448.64 470.2 413.31 441.48 388.25 421.03 387.42 420.37 380.86 415.03 339.83 381.62 316.71 362.79 315.92 362.16 309.89 357.25 267.8 322.98 245.44 304.77 244.72 304.18 238.88 299.43 204.45 271.4 183.17 254.08 182.51 253.52 176.94 249 147.85 225.32 115.17 198.71 161.08 180.63 165.4 178.95 166.35 178.56 174.73 175.26 240.23 149.5 243.79 148.08 244.78 147.69 253.19 144.39 332.58 113.16 333.53 112.79 334.49 112.43 342.4 109.3 411.73 82.02 417.37 79.81 418.33 79.42 426.44 76.22 477.69 56.07 543.98 97.72 549.69 101.32 550.38 101.75 572.28 115.5 609.25 138.75 615.25 142.54 616.01 143 638.97 157.42 639 157.42 681.87 184.39 688.04 188.29 688.83 188.75 711.85 203.23 752.19 228.59 758.92 232.81 759.78 233.34 785.4 249.43 826.79 275.49 833.68 279.81 834.54 280.34 860.27 296.5 876.1 306.46"/><polygon class="cls-8" points="839.46 325.29 818.84 335.87 810.5 340.2 810.47 340.2 809.44 340.72 777.55 357.15 777.52 357.15 736.66 378.19 736.62 378.19 728.25 382.51 727.26 383.04 727.22 383.04 695.3 399.46 641.21 427.26 632.37 431.82 631.28 432.38 597.61 449.69 551.67 473.34 542.89 477.86 541.87 478.38 508.59 495.5 490.88 504.6 482.01 497.38 456.22 476.37 455.36 475.68 448.64 470.2 413.31 441.48 388.25 421.03 387.42 420.37 380.86 415.03 339.83 381.62 316.71 362.79 315.92 362.16 309.89 357.25 267.8 322.98 245.44 304.77 244.72 304.18 238.88 299.43 204.45 271.4 183.17 254.08 182.51 253.52 176.94 249 147.85 225.32 164.38 218.66 166.26 217.9 195.34 206.19 196.3 205.77 196.33 205.77 198.18 205.01 199.2 204.61 204.61 202.44 207.58 201.25 207.61 201.25 245.61 185.91 277.7 172.98 278.72 172.55 287.16 169.16 337.75 148.74 337.79 148.74 368.1 136.54 369.05 136.14 377.03 132.91 417.83 116.49 420.9 115.23 448.31 104.19 449.3 103.79 451.87 102.77 452.89 102.34 457.31 100.56 461 99.07 477.69 92.35 508.66 112.3 514.37 115.96 515.09 116.42 536.92 130.47 573.73 154.22 573.76 154.22 579.73 158.04 580.46 158.54 603.41 173.28 646.32 200.92 652.49 204.88 653.25 205.4 676.89 220.61 716.87 246.37 723.53 250.65 724.42 251.21 750.01 267.7 790.88 294.02 797.7 298.41 798.59 298.97 824.88 315.89 839.46 325.29"/><polygon class="cls-9" points="572.28 115.5 570.2 116.39 563.14 119.36 536.92 130.47 519.64 137.79 511.46 141.26 510.44 141.68 479.31 154.88 436.1 173.21 428.06 176.61 427.1 177.04 427.07 177.04 396.56 189.97 345.44 211.64 336.93 215.23 335.91 215.66 335.87 215.66 303.62 229.38 303.59 229.38 264.31 246 255.86 249.6 254.84 250.03 222.65 263.68 204.45 271.4 183.17 254.08 182.51 253.52 200.79 245.94 200.82 245.94 232.94 232.61 233.96 232.22 242.41 228.72 281.23 212.59 313.48 199.24 314.54 198.81 323.01 195.28 374 174.14 404.47 161.51 405.46 161.11 413.48 157.78 457.01 139.74 488.11 126.84 489.14 126.41 497.28 123.05 497.32 123.05 514.37 115.96 527.66 110.45 535.01 107.38 549.69 101.32 550.38 101.75 572.28 115.5"/><polygon class="cls-9" points="638.97 157.42 638.87 157.48 603.41 173.28 585.51 181.29 577.26 184.96 576.24 185.42 544.87 199.4 502.33 218.36 494.21 221.99 493.23 222.42 462.45 236.17 410.71 259.23 402.17 263.05 401.11 263.52 368.56 278.03 368.53 278.03 327.86 296.2 319.32 299.99 318.3 300.45 285.81 314.93 267.8 322.98 245.44 304.77 244.72 304.18 262.82 296.3 295.24 282.15 296.27 281.69 304.81 277.99 345.04 260.41 377.56 246.23 378.62 245.77 387.16 242.04 438.74 219.55 469.48 206.13 470.47 205.7 478.58 202.17 521.42 183.47 552.76 169.82 553.78 169.36 561.99 165.76 579.73 158.04 602.85 147.95 610.31 144.69 615.25 142.54 616.01 143 638.97 157.42"/><polygon class="cls-9" points="711.85 203.23 711.85 203.92 708.69 205.4 701.6 208.8 676.89 220.61 658.43 229.45 658.39 229.45 650.18 233.37 649.12 233.87 617.73 248.87 576.14 268.73 568.03 272.62 567.04 273.08 536.13 287.85 484.09 312.72 475.51 316.81 474.43 317.31 441.78 332.91 399.79 352.99 391.22 357.08 390.16 357.58 357.54 373.18 339.83 381.62 316.71 362.79 315.92 362.16 333.73 353.85 366.32 338.61 367.34 338.15 375.91 334.13 417.47 314.7 450.12 299.46 451.18 298.97 459.72 294.98 459.75 294.98 511.66 270.7 511.69 270.7 542.53 256.26 543.52 255.8 551.63 252 593.52 232.45 624.92 217.77 625.94 217.28 634.18 213.45 652.49 204.88 665.85 198.64 673.27 195.18 688.04 188.29 688.83 188.75 711.85 203.23"/><polygon class="cls-9" points="785.4 249.43 780.39 252.04 750.01 267.7 731.11 277.47 722.94 281.69 721.91 282.22 690.61 298.38 650.18 319.22 642.07 323.41 641.11 323.94 610.27 339.83 558.16 366.71 549.59 371.13 548.53 371.69 515.95 388.51 472.91 410.71 464.33 415.16 463.28 415.69 430.66 432.51 430.63 432.51 413.31 441.48 388.25 421.03 387.42 420.37 404.84 411.57 437.42 395.11 438.44 394.61 447.02 390.26 489.63 368.76 522.15 352.33 523.2 351.8 531.78 347.48 583.76 321.23 614.53 305.7 615.52 305.2 623.6 301.11 664.36 280.53 695.59 264.74 696.62 264.24 704.83 260.09 723.53 250.65 743.32 240.66 751 236.8 758.92 232.81 759.78 233.34 785.4 249.43"/><polygon class="cls-9" points="860.27 296.5 860.27 297.19 856.94 298.94 849.48 302.86 824.88 315.89 805.16 326.34 796.78 330.76 795.76 331.29 763.93 348.14 723.76 369.42 715.51 373.77 714.53 374.3 714.49 374.3 683.13 390.92 629.96 419.08 621.26 423.67 620.2 424.23 587.06 441.78 542.3 465.49 533.53 470.11 532.51 470.67 532.47 470.67 499.29 488.25 482.01 497.38 456.22 476.37 455.36 475.68 472.74 466.68 505.89 449.53 506.95 449 515.65 444.45 515.69 444.45 559.98 421.49 560.01 421.49 593.09 404.38 594.18 403.81 602.85 399.3 655.89 371.82 655.92 371.82 687.25 355.6 688.24 355.07 688.27 355.07 696.49 350.82 736.99 329.84 768.78 313.38 769.83 312.85 778.18 308.53 797.7 298.41 811.92 291.05 819.7 287.03 833.68 279.81 834.54 280.34 860.27 296.5"/><g><polygon class="cls-9" points="810.4 339.8 809.38 340.36 777.22 357.15 777.19 357.15 420.9 115.23 414.57 110.95 411.73 109.03 411.73 82.02 417.37 79.81 418.33 79.42 446.26 97.95 452.89 102.34 810.4 339.8"/><polygon class="cls-11" points="818.88 335.41 810.43 339.8 810.4 339.8 809.38 340.36 451.87 102.77 445.27 98.38 417.37 79.81 418.33 79.42 426.44 76.22 454.34 94.65 461 99.07 818.84 335.38 818.88 335.41"/></g><g><polygon class="cls-9" points="728.25 382.51 727.26 383.04 727.22 383.04 695.3 399.46 337.79 148.74 337.75 148.74 332.58 145.11 332.58 113.16 333.53 112.79 334.49 112.43 369.05 136.14 728.25 382.51"/><polygon class="cls-11" points="736.62 378.19 728.25 382.51 727.26 383.04 727.22 383.04 368.1 136.54 333.53 112.79 334.49 112.43 342.4 109.3 377.03 132.91 736.62 378.19"/></g><g><polygon class="cls-9" points="542.83 477.49 541.77 478.05 508.23 495.5 166.26 217.9 161.08 213.71 161.08 180.63 165.4 178.95 166.35 178.56 193.27 199.93 193.3 199.93 199.2 204.61 542.83 477.49"/><polygon class="cls-11" points="551.67 472.88 542.83 477.49 541.77 478.05 198.18 205.01 192.31 200.36 165.4 178.95 166.35 178.56 174.73 175.26 201.64 196.53 207.61 201.25 551.67 472.88"/></g><g><polygon class="cls-9" points="632.37 431.82 631.28 432.38 597.61 449.69 245.61 185.91 240.23 181.89 240.23 149.5 243.79 148.08 244.78 147.69 278.72 172.55 632.37 431.82"/><polygon class="cls-11" points="641.21 427.26 632.37 431.82 631.28 432.38 277.7 172.98 243.79 148.08 244.78 147.69 253.19 144.39 287.16 169.16 641.21 427.26"/></g><polygon class="cls-11" points="550.38 101.75 536.1 107.68 528.78 110.75 515.09 116.42 498.01 123.51 489.86 126.88 489.83 126.88 488.84 127.34 488.81 127.34 457.71 140.23 414.2 158.27 406.16 161.61 405.2 162 374.73 174.63 323.71 195.81 315.23 199.33 314.21 199.76 314.17 199.76 281.92 213.12 243.07 229.25 234.62 232.74 233.6 233.17 201.48 246.5 183.17 254.08 182.51 253.52 176.94 249 195.28 241.45 227.4 228.23 228.42 227.8 236.83 224.33 275.59 208.37 307.81 195.08 308.86 194.65 317.34 191.16 368.29 170.15 398.77 157.58 399.73 157.19 407.77 153.89 451.37 135.91 482.44 123.08 483.5 122.65 491.64 119.32 508.66 112.3 518.65 108.18 526.04 105.11 543.98 97.72 549.69 101.32 550.38 101.75"/><polygon class="cls-11" points="616.01 143 611.43 145.02 604.01 148.25 580.46 158.54 562.75 166.26 554.54 169.85 553.48 170.31 522.15 184 479.34 202.7 479.31 202.7 471.23 206.23 470.24 206.66 439.5 220.08 387.89 242.61 379.34 246.33 378.29 246.79 345.8 260.98 305.53 278.55 297.02 282.28 296 282.74 295.97 282.74 263.55 296.89 245.44 304.77 244.72 304.18 238.88 299.43 257.02 291.58 289.44 277.53 290.46 277.07 298.97 273.38 339.11 255.96 371.63 241.88 372.65 241.42 381.22 237.72 432.77 215.36 463.51 202.04 464.47 201.61 464.5 201.61 472.58 198.08 515.49 179.48 515.52 179.48 546.82 165.89 546.85 165.89 547.87 165.43 556.09 161.87 573.73 154.22 573.76 154.22 593.72 145.54 601.2 142.25 609.25 138.75 615.25 142.54 616.01 143"/><polygon class="cls-11" points="688.83 188.75 674.36 195.54 667 198.97 653.25 205.4 634.98 213.95 626.73 217.8 625.71 218.3 594.31 232.98 552.43 252.57 544.31 256.36 543.32 256.82 512.45 271.23 460.51 295.54 451.93 299.53 450.88 300.02 418.26 315.29 376.7 334.72 376.67 334.72 368.1 338.74 367.07 339.24 334.49 354.48 316.71 362.79 315.92 362.16 309.89 357.25 327.73 348.97 360.28 333.83 361.34 333.37 369.91 329.38 411.33 310.12 443.95 294.95 445.01 294.48 445.04 294.48 453.58 290.49 505.49 266.35 536.36 252.04 537.35 251.58 545.47 247.78 587.42 228.29 618.82 213.71 619.84 213.22 628.08 209.39 646.32 200.92 656.78 196.07 664.23 192.61 681.87 184.39 688.04 188.29 688.83 188.75"/><polygon class="cls-11" points="759.78 233.34 752.16 237.2 744.51 241.06 724.42 251.21 705.69 260.65 697.51 264.8 696.45 265.33 665.22 281.13 624.49 301.71 616.38 305.8 615.39 306.29 584.61 321.82 532.64 348.11 532.6 348.11 524.06 352.43 523.01 352.96 490.46 369.38 447.84 390.92 439.27 395.24 438.25 395.77 405.66 412.22 388.25 421.03 387.42 420.37 380.86 415.03 398.31 406.26 430.86 389.93 431.91 389.4 440.49 385.08 482.97 363.78 515.49 347.45 515.52 347.45 516.54 346.92 516.58 346.92 525.08 342.6 577.06 316.55 607.83 301.08 608.82 300.59 616.9 296.53 657.73 276.05 688.97 260.35 689.99 259.82 690.02 259.82 698.2 255.73 698.23 255.73 716.87 246.37 733.92 237.79 741.64 233.9 752.19 228.59 758.92 232.81 759.78 233.34"/><polygon class="cls-11" points="834.54 280.34 820.86 287.43 813.14 291.45 798.59 298.97 779.07 309.09 779.04 309.09 770.72 313.45 770.69 313.45 769.67 313.98 737.88 330.43 737.84 330.43 697.38 351.41 689.13 355.7 688.14 356.22 656.78 372.45 603.74 399.96 595.04 404.44 593.98 405 560.87 422.15 516.51 445.14 507.77 449.66 506.75 450.22 506.71 450.22 473.57 467.37 456.22 476.37 455.36 475.68 448.64 470.2 466.02 461.23 466.05 461.23 499.16 444.18 500.22 443.66 508.96 439.17 553.18 416.38 586.26 399.36 587.32 398.8 596.03 394.32 649.06 367.04 680.39 350.88 681.38 350.39 681.41 350.39 689.63 346.13 730.19 325.26 761.98 308.86 762.02 308.86 763.04 308.34 771.38 304.05 790.88 294.02 802.39 288.09 810.2 284.03 826.79 275.49 833.68 279.81 834.54 280.34"/></g><g id="Logo"><path class="cls-7" d="M832.47,467.71c0,26.26-22.27,60.19-50.14,76.03-28.33,16.1-51.64,7.42-51.64-19.62s23.31-61.56,51.64-76.86c27.87-15.06,50.14-5.81,50.14,20.45Z"/><g><path class="cls-6" d="M813.03,478.48c0,.32-.1,.7-.29,1.05l-29.7,54.03c-.39,.72-1.04,1.08-1.43,.81l-30.25-20.8c-.2-.14-.3-.41-.3-.74s.1-.71,.3-1.07l30.25-54.34c.39-.71,1.04-1.06,1.43-.78l29.7,21.11c.19,.13,.29,.4,.29,.73Z"/><path class="cls-5" d="M781.49,525.03l-22.51-15.54c-.47-.32-.47-1.27,0-2.11l22.51-40.49c.46-.83,1.21-1.24,1.67-.91l22.2,15.71c.45,.32,.45,1.26,0,2.08l-22.2,40.32c-.46,.83-1.21,1.26-1.67,.94Z"/><path class="cls-6" d="M781.49,521.88l-19.96-13.8c-.46-.32-.46-1.27,0-2.1l19.96-35.93c.46-.83,1.21-1.24,1.67-.91l19.72,13.94c.45,.32,.45,1.26,0,2.08l-19.72,35.79c-.46,.83-1.21,1.25-1.67,.94Z"/><path class="cls-5" d="M813.03,478.48c0,.32-.1,.7-.29,1.05l-29.7,54.03c-.39,.72-1.04,1.08-1.43,.81l-30.25-20.8c-.2-.14-.3-.41-.3-.74l10.05-5.57c0,.33,.1,.6,.3,.74l20.2,13.97c.39,.27,1.04-.09,1.43-.8l19.95-36.23c.19-.35,.29-.73,.29-1.05l9.75-5.4Z"/></g><g><path class="cls-12" d="M825.6,495.48c.15-.3,.42-.18,.29,.13-8.79,20.99-24.93,40.92-43.56,51.53-18.83,10.72-35.48,9.23-44.69-1.99-.14-.17,.14-.6,.3-.47,9.81,7.74,26.11,7.17,44.39-3.21,18.09-10.27,33.9-27.75,43.27-45.99Z"/><path class="cls-12" d="M737.11,497.12c-.09,.18-.25,.12-.18-.07,9.04-22.05,26.07-42.78,45.39-53.2,19.11-10.31,35.6-7.89,44.23,4.13,.07,.1-.08,.33-.17,.25-9.26-8.54-25.46-8.78-44.06,1.28-18.81,10.17-35.52,28.4-45.22,47.6Z"/></g><g><path class="cls-5" d="M783.3,498.72l1.01,.63c.52,2.81-.6,6.12-2.16,8.94-2.25,4.08-4.75,5.62-7.11,3.99-1.88-1.31-3.12-4.16-2.86-7.9,.12-1.77,.68-4.13,2.34-7.12,1.05-1.9,2.21-3.24,3.16-3.71l-.23-1.63,.5-.7c.56,1.29,1.41,2.94,2.48,4.44l-.44,.79c-.66-.65-1.71-1.27-2.56-1.15-.81,.11-1.45,.69-2,1.69-.63,1.14-.92,2.56-.75,4,.35,3.14,1.85,5.47,3.66,6.73,.77,.53,1.59,.62,2.09,.44,.68-.21,1.37-.93,1.8-1.72,1.47-2.66,1.57-4.8,.75-7.11l.33-.6Z"/><path class="cls-5" d="M792.6,481.9l1,.63c.52,2.8-.6,6.1-2.15,8.91-2.24,4.05-4.72,5.59-7.07,3.94-1.87-1.31-3.1-4.16-2.85-7.9,.12-1.76,.67-4.11,2.32-7.09,1.05-1.89,2.2-3.22,3.14-3.69l-.23-1.62,.5-.7c.55,1.29,1.4,2.94,2.47,4.45l-.43,.78c-.66-.65-1.7-1.28-2.54-1.16-.81,.11-1.44,.68-1.99,1.68-.63,1.14-.91,2.55-.75,3.99,.34,3.14,1.84,5.47,3.64,6.72,.76,.54,1.59,.62,2.08,.44,.67-.2,1.36-.92,1.79-1.7,1.46-2.64,1.57-4.78,.75-7.09l.33-.59Z"/></g><g class="cls-2"><g><path d="M753.23,499.43l.02,1.5c-1.14,2.91-3.3,5.28-5.47,6.48-3.06,1.69-4.74,.43-4.74-3.45,0-3.19,1.12-7.35,3.21-10.73,1.02-1.64,2.46-3.35,4.55-4.49,1.44-.79,2.6-.81,3.14-.23l.76-1.78,.49-.06c-.45,1.66-1.07,4.33-1.38,6.39l-.56,.31c.16-1.5,.1-2.98-.29-3.61-.39-.66-1.01-.78-1.9-.29-.97,.53-1.98,1.65-2.83,3.35-1.61,3.3-2.38,7.11-2.38,10.14,0,1.41,.31,2.47,.66,2.87,.45,.52,1.22,.53,2.01,.1,2.13-1.17,3.39-3.23,4.32-6.28l.39-.22Z"/><path d="M756.26,485.59c.68-.4,3.13-1.94,4.15-2.76-.33,1.18-1.34,5.7-2.38,10.65,1.19-2.5,2.69-4.93,4.52-5.94,.57-.31,.9-.29,1.13-.13,.55,.33,.31,1.87,.08,2.79-.62,2.67-1.35,5.42-1.74,7.15-.08,.38-.06,.72,.14,.61,.53-.29,1.44-1.92,1.95-3.5l.41,.34c-.86,2.62-2.13,4.5-3.59,5.3s-1.44-.71-.9-2.88c.66-2.66,1.36-5.35,1.64-6.63,.12-.58,.14-1.26-.39-.96-.61,.34-1.64,1.59-2.71,4.12-.7,1.61-1.17,3.41-1.52,4.96-.25,1.11-.47,1.98-.8,3.64-.62,.34-1.63,1-2.39,1.5,.46-2.07,1.36-6.03,2.35-10.82,.95-4.67,1.24-6.08,1.36-6.91,.06-.31,0-.43-.31-.29l-1.19,.63,.21-.86Z"/><path d="M774.14,485.13c0,2.45-1.02,5.84-2.67,8.1-.86,1.19-1.84,2.04-2.96,2.66-1.55,.86-3.29,1.18-3.29-2.04,0-2.45,1.04-5.74,2.64-8.04,.88-1.25,1.92-2.23,2.98-2.81,2.12-1.16,3.3-.49,3.3,2.14Zm-4.98,.93c-.9,2.08-1.68,5.75-1.7,7.65,0,1.45,.53,1.7,1.14,1.36,.51-.28,.98-.87,1.45-1.85,.96-2.09,1.86-6.23,1.84-8.18,0-.97-.27-1.69-1.04-1.27-.57,.31-1.12,.98-1.7,2.28Z"/><path d="M782.05,485.33c-.81,2.13-2.41,4.41-4.35,5.48s-3.01,.39-3.01-2.18c0-2.42,1-5.62,2.73-8.07,.87-1.22,1.75-2.13,2.9-2.76,1.56-.86,2.47-.37,2.47,1.05,0,1.15-.69,2.11-1.28,2.43-.28,.16-.55,.2-.69,.05-.18-.13-.2-.45-.1-.83,.1-.41,.22-.86,.22-1.22,0-.61-.22-.92-.79-.61-.71,.39-1.46,1.52-2.13,3.54-.59,1.73-.94,3.65-.94,5.23s.55,2.24,1.49,1.72c1.32-.73,2.34-2.38,3.09-4.88l.3-.17,.08,1.23Z"/><path d="M792.07,475.28c0,2.43-1.01,5.8-2.64,8.05-.85,1.18-1.82,2.02-2.93,2.64-1.54,.85-3.26,1.16-3.26-2.04,0-2.44,1.03-5.7,2.61-7.99,.87-1.24,1.9-2.21,2.95-2.79,2.1-1.15,3.27-.48,3.27,2.13Zm-4.93,.91c-.89,2.07-1.66,5.71-1.68,7.6,0,1.45,.53,1.69,1.13,1.36,.51-.28,.97-.87,1.44-1.83,.95-2.07,1.84-6.19,1.82-8.13,0-.96-.26-1.68-1.03-1.26-.57,.31-1.11,.97-1.68,2.27Z"/><path d="M794.22,464.79c1.65-.93,3.26-2.01,4.02-2.68-.4,1.56-1.02,4.23-1.99,8.94-.88,4.23-1.41,6.85-1.65,8.28-.08,.53-.04,.73,.16,.62,.48-.27,1.41-1.82,1.91-3.36l.4,.34c-.86,2.58-2.19,4.42-3.54,5.17-1.43,.79-1.43-.53-1.01-2.58,.44-2.14,.89-4.14,1.53-7.23,.89-4.31,1.17-5.71,1.35-6.85,.08-.45,.02-.49-.26-.36l-1.13,.57,.2-.85Z"/><path d="M807.94,470.91c-.54,1.69-1.64,4.11-3.36,5.06-1.24,.69-1.28-.58-1.02-1.99,.04-.2,.08-.47,.14-.71l-.06,.03c-.76,1.88-2.1,4.37-3.95,5.39-1.2,.66-1.73-.18-1.73-1.78,0-2.78,1.33-6.93,3.23-9.59,.84-1.2,1.62-1.88,2.41-2.31,.96-.53,1.5-.37,1.72,.14l.2-.86,2.16-1.19c-.66,2.71-1.78,7.99-2.06,9.94-.08,.5-.1,.96,.16,.82,.5-.28,1.24-1.69,1.76-3.24l.4,.28Zm-6.97,5.56c.78-.43,1.71-1.88,2.65-4.57,.44-1.23,1.26-4.2,1.26-5.19s-.42-1.23-.94-.95-1.04,.88-1.58,1.98c-1.16,2.33-2.02,5.74-2.02,7.76,0,.66,.18,1.22,.64,.96Z"/><path d="M813.71,468.01c-.78,2.37-2.25,4.16-3.59,4.9-1.72,.95-1.84-.2-1.42-2.19,.52-2.48,1.3-6.16,1.7-8.02l-1.4,.59,.28-.96,1.34-.73c.3-1.35,.54-2.56,.7-3.46,.84-.56,1.95-1.4,2.53-1.97-.16,.62-.64,2.61-.98,4.19l2.09-1.15-.32,.98-1.99,1.27c-.36,1.56-1.53,7.22-1.85,9.06-.1,.61-.04,.88,.36,.66,.82-.45,1.85-2.51,2.23-3.95l.32,.78Z"/><path d="M822.13,463.26c-.89,2.18-2.52,4.41-4.5,5.5-1.77,.98-2.72,.22-2.72-2.07s.89-5.58,2.62-8.16c.88-1.29,1.83-2.16,2.8-2.69,1.7-.94,2.4-.11,2.4,1.35,0,1.2-.71,2.25-1.37,2.96-.97,1.11-2.96,2.73-3.95,3.43-.08,.5-.16,1.22-.16,1.85,0,1.36,.4,2.15,1.41,1.59,1.23-.68,2.36-2.33,3.07-4.81l.3-.16,.1,1.23Zm-4.6-.58c.74-.53,1.75-1.44,2.2-1.97,.71-.85,1.09-1.98,1.09-3.09,0-.78-.26-1.14-.73-.88-.58,.32-1.75,1.71-2.56,5.94Z"/><path d="M769.83,521.32l.07,2.36c-1.78,4.64-5.41,9.03-9.19,11.16-5.26,2.96-7.95,.5-7.95-6.01,0-5.53,1.94-12.89,5.48-18.73,1.72-2.78,4.18-5.74,7.53-7.6,2.53-1.4,4.48-1.33,5.33-.2l1.24-3.08,.74,.08c-.71,2.61-1.85,7.54-2.27,10.44l-.92,.56c.39-2.84,.25-5.11-.39-6.13-.71-1.07-1.81-1.35-3.56-.38s-3.67,2.92-5.28,6.08c-2.79,5.55-4.22,12.14-4.22,17.35,0,2.54,.57,4.58,1.29,5.29,.89,.92,2.32,1.01,3.93,.11,3.78-2.12,5.99-5.8,7.55-10.94l.6-.34Z"/><path d="M775.22,496.69c2.34-1.34,4.77-3,6.08-4.12-.71,2.69-1.84,7.56-3.5,15.57-1.59,7.71-2.65,12.69-3.01,15.15-.18,.99-.07,1.37,.32,1.15,.92-.52,2.55-3.33,3.47-6.2l.67,.55c-1.48,4.5-3.71,7.62-5.73,8.75-2.16,1.22-1.99-1.41-1.38-4.45,.82-3.87,1.67-7.58,2.8-13.09,1.59-7.66,2.12-10.44,2.48-12.49,.14-.7,0-.8-.42-.56l-2.12,1.13,.35-1.39Z"/><path d="M797.38,508.72c-1.12,3.4-3.08,7.14-5.53,8.52-2.03,1.14-1.89-1.23-1.33-3.88,.1-.5,.21-1,.35-1.74-1.93,4.7-4.57,8.7-7.28,10.22-2.79,1.57-3-.52-2.18-4.34,.92-4.32,2.68-11.84,2.96-13.28,.11-.55,.07-.7-.42-.43l-2.04,1.18,.46-1.45c1.76-1.2,4.26-2.9,5.92-4.39-.88,2.3-3.38,13.23-4.19,17.88-.25,1.55,.04,2.41,.91,1.92,2.67-1.5,5.66-8.03,7.03-13.2,.67-2.66,1.26-5.38,1.51-6.61,.07-.44,.03-.68-.46-.36l-2,1.16,.42-1.47c1.79-1.21,4.1-2.81,5.78-4.32-1.33,4.83-3.46,14.26-4.24,18.93-.18,.94-.14,1.53,.28,1.3,.95-.53,2.49-3.38,3.4-6.22l.66,.6Z"/><path d="M802.16,481.78c2.16-1.28,4.84-3.12,5.92-4.02-1.04,4.04-3.16,14.35-3.93,17.99,1.74-3.65,4.1-7.73,6.91-9.29,2.29-1.27,3.12,.37,3.12,3.08-.03,4.92-2.43,11.87-5.41,16.05-1.42,1.98-3.44,4.04-5.29,5.08-1.43,.8-2.72,1.09-3.45,.84-1.08-.32-1.22-1.38-.77-3.57,.7-3.42,1.61-7.8,2.55-12.37,1.5-7.38,2.37-11.78,2.54-13.15,.07-.52,0-.61-.35-.46l-2.2,1.17,.35-1.34Zm4.88,23.86c1.84-3.14,3.99-9.87,4.03-14.53,.03-1.77-.49-2.45-1.39-1.95-1.7,.95-3.79,4.61-5.15,8.44-1.32,3.6-2.47,8.19-2.47,10.13,0,1.63,.8,1.97,2.02,1.28,.94-.53,2.02-1.79,2.96-3.37Z"/></g></g><g><path class="cls-1" d="M752.9,498.78l.02,1.5c-1.14,2.91-3.3,5.28-5.48,6.48-3.06,1.69-4.74,.43-4.74-3.45,0-3.19,1.12-7.35,3.21-10.73,1.02-1.64,2.46-3.35,4.55-4.49,1.45-.79,2.6-.81,3.14-.23l.76-1.78,.49-.06c-.45,1.66-1.07,4.33-1.38,6.39l-.56,.31c.16-1.5,.1-2.98-.29-3.61-.39-.66-1.01-.78-1.9-.29-.97,.53-1.98,1.65-2.83,3.35-1.61,3.3-2.38,7.11-2.38,10.14,0,1.41,.31,2.47,.66,2.87,.45,.52,1.22,.53,2.01,.1,2.13-1.17,3.39-3.23,4.32-6.28l.39-.22Z"/><path class="cls-1" d="M755.93,484.95c.68-.4,3.13-1.94,4.16-2.76-.33,1.18-1.34,5.7-2.38,10.65,1.19-2.5,2.69-4.93,4.52-5.94,.57-.31,.9-.29,1.13-.13,.55,.33,.31,1.87,.08,2.79-.62,2.67-1.35,5.42-1.74,7.15-.08,.38-.06,.72,.14,.61,.53-.29,1.44-1.92,1.95-3.5l.41,.34c-.86,2.62-2.13,4.5-3.59,5.3s-1.44-.71-.9-2.88c.66-2.66,1.36-5.35,1.64-6.63,.12-.58,.14-1.26-.39-.96-.61,.34-1.64,1.59-2.71,4.12-.7,1.61-1.17,3.41-1.52,4.96-.25,1.11-.47,1.98-.8,3.64-.62,.34-1.63,1-2.39,1.5,.46-2.07,1.36-6.03,2.35-10.82,.95-4.67,1.24-6.08,1.36-6.91,.06-.31,0-.44-.31-.29l-1.19,.63,.21-.86Z"/><path class="cls-1" d="M773.82,484.49c0,2.45-1.02,5.84-2.67,8.1-.86,1.19-1.84,2.04-2.96,2.66-1.55,.86-3.29,1.18-3.29-2.04,0-2.45,1.04-5.74,2.64-8.04,.88-1.25,1.92-2.23,2.98-2.81,2.12-1.16,3.3-.49,3.3,2.14Zm-4.98,.93c-.9,2.08-1.68,5.75-1.7,7.65,0,1.45,.53,1.7,1.14,1.36,.51-.28,.98-.87,1.45-1.85,.96-2.09,1.86-6.23,1.84-8.18,0-.97-.27-1.69-1.04-1.27-.57,.31-1.12,.98-1.7,2.28Z"/><path class="cls-1" d="M781.72,484.7c-.81,2.13-2.41,4.41-4.35,5.48-1.99,1.1-3.01,.39-3.01-2.18,0-2.42,1-5.62,2.73-8.07,.87-1.22,1.75-2.13,2.91-2.76,1.56-.86,2.48-.37,2.48,1.05,0,1.15-.69,2.11-1.28,2.43-.28,.16-.55,.2-.69,.05-.18-.13-.2-.45-.1-.83,.1-.41,.22-.86,.22-1.22,0-.61-.22-.92-.79-.61-.71,.39-1.46,1.52-2.13,3.54-.59,1.73-.94,3.65-.94,5.23s.55,2.24,1.49,1.72c1.32-.73,2.34-2.38,3.09-4.88l.3-.17,.08,1.23Z"/><path class="cls-1" d="M791.74,474.64c0,2.43-1.01,5.81-2.65,8.05-.85,1.18-1.82,2.02-2.93,2.63-1.54,.85-3.26,1.16-3.26-2.04,0-2.44,1.03-5.7,2.61-7.99,.87-1.24,1.9-2.21,2.95-2.79,2.1-1.15,3.27-.48,3.27,2.13Zm-4.93,.91c-.89,2.07-1.66,5.71-1.68,7.6,0,1.45,.53,1.69,1.13,1.36,.51-.28,.97-.87,1.44-1.83,.95-2.07,1.84-6.19,1.82-8.13,0-.96-.26-1.68-1.03-1.26-.57,.31-1.11,.97-1.68,2.27Z"/><path class="cls-1" d="M793.9,464.16c1.65-.93,3.26-2.01,4.02-2.68-.4,1.56-1.02,4.23-1.99,8.94-.88,4.23-1.41,6.85-1.65,8.28-.08,.53-.04,.73,.16,.62,.48-.27,1.41-1.82,1.91-3.36l.4,.34c-.86,2.58-2.19,4.42-3.54,5.17-1.43,.79-1.43-.53-1.01-2.58,.44-2.14,.89-4.14,1.53-7.23,.89-4.31,1.17-5.71,1.35-6.85,.08-.45,.02-.49-.26-.36l-1.13,.57,.2-.85Z"/><path class="cls-1" d="M807.62,470.28c-.54,1.69-1.64,4.11-3.36,5.06-1.24,.68-1.28-.58-1.02-1.99,.04-.2,.08-.47,.14-.71l-.06,.03c-.76,1.88-2.1,4.37-3.95,5.39-1.2,.66-1.73-.18-1.73-1.78,0-2.78,1.33-6.93,3.23-9.59,.84-1.2,1.62-1.88,2.41-2.31,.96-.53,1.5-.37,1.72,.14l.2-.86,2.16-1.19c-.66,2.71-1.78,7.99-2.06,9.94-.08,.5-.1,.96,.16,.82,.5-.28,1.24-1.69,1.76-3.24l.4,.28Zm-6.97,5.56c.78-.43,1.71-1.88,2.65-4.57,.44-1.23,1.26-4.2,1.26-5.19s-.42-1.23-.94-.95-1.04,.88-1.58,1.98c-1.16,2.33-2.02,5.74-2.02,7.76,0,.66,.18,1.22,.64,.96Z"/><path class="cls-1" d="M813.39,467.38c-.78,2.37-2.25,4.16-3.59,4.9-1.72,.95-1.84-.2-1.42-2.19,.52-2.48,1.3-6.16,1.7-8.02l-1.4,.59,.28-.96,1.34-.73c.3-1.35,.54-2.56,.7-3.46,.84-.56,1.95-1.4,2.53-1.97-.16,.62-.64,2.61-.98,4.19l2.09-1.15-.32,.98-1.99,1.27c-.36,1.56-1.53,7.22-1.85,9.06-.1,.61-.04,.88,.36,.66,.82-.45,1.85-2.51,2.23-3.95l.32,.78Z"/><path class="cls-1" d="M821.81,462.63c-.89,2.18-2.52,4.41-4.5,5.5-1.77,.98-2.73,.22-2.73-2.07s.89-5.58,2.62-8.16c.88-1.29,1.83-2.16,2.8-2.69,1.7-.94,2.4-.11,2.4,1.35,0,1.2-.71,2.25-1.37,2.96-.97,1.11-2.96,2.73-3.95,3.43-.08,.5-.16,1.22-.16,1.85,0,1.36,.4,2.15,1.41,1.59,1.23-.68,2.36-2.33,3.07-4.81l.3-.16,.1,1.23Zm-4.61-.58c.74-.53,1.75-1.44,2.2-1.97,.71-.85,1.09-1.98,1.09-3.09,0-.78-.26-1.14-.73-.88-.58,.32-1.75,1.71-2.56,5.94Z"/><path class="cls-1" d="M769.5,520.68l.07,2.36c-1.78,4.64-5.41,9.03-9.19,11.16-5.26,2.96-7.95,.5-7.95-6.01,0-5.53,1.94-12.89,5.48-18.73,1.72-2.78,4.18-5.74,7.53-7.6,2.53-1.4,4.48-1.33,5.33-.2l1.24-3.08,.74,.08c-.71,2.61-1.85,7.54-2.27,10.44l-.92,.56c.39-2.84,.25-5.11-.39-6.13-.71-1.07-1.81-1.35-3.56-.38-1.78,.99-3.67,2.92-5.28,6.08-2.79,5.55-4.22,12.14-4.22,17.35,0,2.54,.57,4.58,1.29,5.29,.89,.92,2.32,1.01,3.93,.11,3.78-2.12,5.99-5.8,7.55-10.94l.6-.34Z"/><path class="cls-1" d="M774.89,496.05c2.34-1.34,4.77-3,6.08-4.11-.71,2.69-1.84,7.56-3.5,15.57-1.59,7.71-2.65,12.69-3.01,15.15-.18,.99-.07,1.37,.32,1.15,.92-.52,2.55-3.33,3.47-6.2l.67,.55c-1.49,4.5-3.71,7.62-5.73,8.75-2.16,1.22-1.99-1.41-1.38-4.45,.82-3.87,1.67-7.58,2.8-13.09,1.59-7.66,2.12-10.44,2.48-12.49,.14-.7,0-.8-.42-.56l-2.12,1.13,.35-1.39Z"/><path class="cls-1" d="M797.06,508.08c-1.12,3.4-3.08,7.14-5.53,8.52-2.04,1.14-1.9-1.23-1.33-3.88,.1-.5,.21-1,.35-1.74-1.93,4.7-4.57,8.7-7.28,10.22-2.79,1.57-3-.52-2.19-4.34,.92-4.32,2.68-11.84,2.96-13.28,.11-.55,.07-.7-.42-.43l-2.04,1.18,.46-1.45c1.76-1.2,4.26-2.9,5.92-4.39-.88,2.3-3.38,13.23-4.19,17.88-.25,1.55,.04,2.41,.92,1.92,2.67-1.5,5.66-8.03,7.03-13.2,.67-2.66,1.26-5.38,1.51-6.61,.07-.44,.03-.68-.46-.36l-2,1.16,.42-1.47c1.79-1.21,4.1-2.81,5.78-4.32-1.33,4.83-3.47,14.26-4.24,18.93-.18,.94-.14,1.53,.28,1.3,.95-.53,2.49-3.38,3.4-6.22l.66,.6Z"/><path class="cls-1" d="M801.84,481.14c2.16-1.28,4.84-3.12,5.92-4.02-1.04,4.04-3.16,14.35-3.93,17.99,1.74-3.65,4.11-7.73,6.92-9.29,2.29-1.27,3.12,.37,3.12,3.08-.03,4.92-2.43,11.87-5.41,16.05-1.43,1.98-3.44,4.04-5.29,5.08-1.43,.8-2.72,1.09-3.45,.84-1.08-.32-1.22-1.38-.77-3.57,.7-3.42,1.61-7.8,2.55-12.37,1.5-7.38,2.37-11.78,2.54-13.15,.07-.52,0-.61-.35-.47l-2.2,1.17,.35-1.34Zm4.88,23.86c1.84-3.14,3.99-9.87,4.03-14.53,.03-1.77-.49-2.45-1.39-1.95-1.7,.95-3.79,4.61-5.15,8.44-1.32,3.6-2.47,8.19-2.47,10.13,0,1.63,.8,1.97,2.02,1.28,.94-.53,2.02-1.79,2.96-3.37Z"/></g></g></g></svg>